<svg width="14" height="15" viewBox="0 0 14 15" fill="none" xmlns="http://www.w3.org/2000/svg">
<path fill-rule="evenodd" clip-rule="evenodd" d="M6.20942 0.79126C6.72812 0.79126 7.22513 0.999535 7.59196 1.37084L13.1688 7.01557C13.3505 7.19935 13.4946 7.41755 13.5929 7.65772C13.6912 7.89788 13.7418 8.1553 13.7418 8.41527C13.7418 8.67524 13.6912 8.93266 13.5929 9.17283C13.4946 9.413 13.3505 9.6312 13.1688 9.81498L9.50832 13.52C9.32675 13.7039 9.11117 13.8498 8.8739 13.9493C8.63662 14.0488 8.38229 14.1 8.12545 14.1C7.86861 14.1 7.61429 14.0488 7.37701 13.9493C7.13973 13.8498 6.92415 13.7039 6.74259 13.52L1.16575 7.87529C0.984204 7.69152 0.840194 7.47335 0.741946 7.23324C0.643698 6.99314 0.593136 6.7358 0.593147 6.47592V2.77021C0.593147 2.24536 0.799135 1.74201 1.1658 1.37088C1.53246 0.999756 2.02976 0.79126 2.54829 0.79126H6.20942ZM6.20942 2.12209H2.54829C2.37847 2.12209 2.2156 2.19038 2.09552 2.31192C1.97543 2.43347 1.90797 2.59832 1.90797 2.77021V6.47592C1.90797 6.64759 1.97569 6.81262 2.09534 6.93439L7.67217 12.5791C7.92198 12.832 8.32826 12.832 8.57808 12.5791L12.2392 8.87341C12.2987 8.81322 12.3459 8.74175 12.3781 8.66308C12.4104 8.58442 12.4269 8.5001 12.4269 8.41494C12.4269 8.32978 12.4104 8.24546 12.3781 8.1668C12.3459 8.08813 12.2987 8.01666 12.2392 7.95647L6.66238 2.31174C6.60281 2.25149 6.53207 2.20372 6.45424 2.17118C6.3764 2.13864 6.29298 2.12196 6.20877 2.12209H6.20942ZM4.53762 3.45293C4.88634 3.45293 5.22077 3.59314 5.46734 3.84272C5.71392 4.0923 5.85245 4.4308 5.85245 4.78376C5.85245 5.13672 5.71392 5.47522 5.46734 5.7248C5.22077 5.97438 4.88634 6.11459 4.53762 6.11459C4.18891 6.11459 3.85448 5.97438 3.6079 5.7248C3.36132 5.47522 3.2228 5.13672 3.2228 4.78376C3.2228 4.4308 3.36132 4.0923 3.6079 3.84272C3.85448 3.59314 4.18891 3.45293 4.53762 3.45293Z" fill="#7AC751"/>
</svg>
